<svg width="269" height="269" viewBox="0 0 269 269" fill="none" xmlns="http://www.w3.org/2000/svg">
<path d="M133.491 225.709C192.406 225.709 240.166 177.949 240.166 119.034C240.166 60.1188 192.406 12.3586 133.491 12.3586C74.5756 12.3586 26.8154 60.1188 26.8154 119.034C26.8154 177.949 74.5756 225.709 133.491 225.709Z" fill="white"/>
<path d="M128.783 129.119L129.371 135.256L142.989 135.844L142.317 128.951L128.783 129.119Z" fill="#0A44BF"/>
<path d="M26.7329 137.863L36.1479 134.248L44.386 133.239V140.637L36.8204 141.645L27.7417 144.756L26.7329 137.863Z" fill="#0A44BF"/>
<path d="M27.7397 144.756L35.2213 200.91L46.4857 246.303L66.4085 253.028L109.953 254.458L132.061 248.405L138.45 210.493L143.662 162.409L144.671 136.182L128.447 135.173L38.7519 141.646L27.7397 144.756Z" fill="#0A44BF"/>
<path d="M150.135 102.724L154.002 106.087L169.133 97.7645L194.688 97.1761L214.695 109.197L218.562 106.591L209.063 94.9905L187.458 88.4336L163.164 91.628L150.135 102.724Z" fill="#E91676"/>
<path d="M82.9702 207.466L86.0805 209.567L97.1768 208.559L113.485 206.289H130.213L140.805 210.576L146.101 223.27L168.378 205.448L189.141 213.182L210.745 196.286L229.575 204.44L239.074 154.927L250.843 103.565L253.449 81.0359L248.069 72.8818L240.84 81.8765L225.792 133.155L213.603 119.789L178.633 105.582L169.639 98.7731L161.232 111.635L150.136 124.58L141.394 147.445V152.405L152.742 159.382L160.224 169.049L169.639 176.111L157.618 183.928L135.93 188.636L117.184 190.065L98.6058 195.445L87.8458 200.405L83.7268 204.356L82.9702 207.466Z" fill="#FEE9BE"/>
<path d="M30.6838 71.7896L26.7329 80.2799V137.863L35.2232 134.668L45.731 131.978L39.4263 80.2799L36.1479 71.7896H30.6838Z" fill="#FEE9BE"/>
<path d="M127.691 127.775L143.663 129.12L140.469 93.057L134.837 75.3198L128.448 77.6736L125.001 96.0833L127.691 127.775Z" fill="#FEE9BE"/>
<path d="M68.0908 111.132L57.8352 124.834L46.4867 138.789L44.5533 151.734L42.1996 153.752L40.2661 156.021V159.804L44.4692 162.41H47.2433L52.3711 173.002L60.7774 182.417L71.4533 188.386L84.483 191.16L94.2342 190.571L104.238 187.461L112.644 182.165L120.546 174.095L125.59 165.268L128.448 154.676L131.306 155.349L134.08 153.5L135.425 147.951L133.239 143.58L129.372 142.824L126.262 132.736L110.963 122.396L80.3639 118.193L68.0908 111.132Z" fill="#FEE9BE"/>
<path d="M190.991 167.536C193.093 165.771 193.933 160.475 190.991 163.67C188.049 166.864 186.62 169.302 183.089 165.771C182.249 164.846 182.585 162.493 181.156 162.409C179.727 162.325 180.651 166.023 181.156 166.78C182.415 168.094 184.114 168.897 185.929 169.037C187.743 169.176 189.546 168.642 190.991 167.536Z" fill="#361041"/>
<path d="M160.812 141.56C166.781 142.821 166.613 133.658 161.233 134.835C157.954 135.508 157.113 140.804 160.812 141.56ZM160.812 136.853C161.08 136.853 161.336 136.959 161.526 137.148C161.715 137.337 161.821 137.594 161.821 137.861C161.821 138.129 161.715 138.386 161.526 138.575C161.336 138.764 161.08 138.87 160.812 138.87C159.719 139.038 159.719 136.853 161.148 136.853H160.812Z" fill="#361041"/>
<path d="M204.187 137.191C207.465 140.806 213.686 136.771 210.744 132.399C207.801 128.028 200.404 133.156 204.187 137.191ZM205.7 133.156C205.967 133.156 206.224 133.262 206.413 133.451C206.602 133.64 206.709 133.897 206.709 134.165C206.709 134.432 206.602 134.689 206.413 134.878C206.224 135.067 205.967 135.173 205.7 135.173C204.523 135.341 204.355 133.156 205.7 133.156Z" fill="#361041"/>
<path d="M157.111 128.699C159.372 126.487 162.36 125.172 165.518 125C166.358 125 168.124 125.757 168.88 125C171.066 123.235 168.88 122.31 167.199 121.89C165.902 121.604 164.56 121.591 163.257 121.851C161.955 122.112 160.721 122.64 159.633 123.403C158.541 123.991 156.019 125.925 155.766 127.018C155.514 128.11 155.851 129.96 157.111 128.699Z" fill="#361041"/>
<path d="M200.489 124.159C202.254 125.168 205.953 123.319 207.719 124.159C208.475 124.159 211.669 127.606 212.594 126.597C213.519 125.589 210.24 123.235 209.064 122.562C207.373 121.61 205.52 120.983 203.599 120.713C202.507 120.965 197.379 122.226 200.489 124.159Z" fill="#361041"/>
<path d="M166.611 149.38C161.484 145.933 151.9 150.473 156.524 157.114C162.072 165.1 174.261 154.676 166.611 149.38Z" fill="#FF47D3"/>
<path d="M208.053 154.17C216.46 158.877 220.747 142.989 211.668 142.989C205.363 142.905 201.749 150.723 208.053 154.17Z" fill="#FF47D3"/>
<path d="M63.8882 149.464C69.7726 147.951 70.6132 150.893 71.7901 150.641C75.3207 149.884 69.6045 146.522 66.4941 146.522C63.3838 146.522 58.0879 148.792 58.0879 151.902C58.0879 155.012 58.8445 150.641 63.8882 149.464Z" fill="#361041"/>
<path d="M117.687 142.905C116.099 142.068 114.271 141.804 112.51 142.156C110.75 142.508 109.164 143.455 108.02 144.839C105.582 148.958 109.029 146.52 110.206 145.763C111.585 144.901 113.21 144.516 114.829 144.67C117.519 144.67 117.351 146.772 119.116 147.781C123.571 149.798 119.705 143.746 117.687 142.905Z" fill="#361041"/>
<path d="M98.3533 180.145C101.884 177.455 100.623 168.796 98.3533 173.756C97.4287 175.521 98.3533 176.53 96.6721 178.043C95.5917 178.687 94.3572 179.027 93.0994 179.027C91.8416 179.027 90.6072 178.687 89.5268 178.043C88.7702 177.539 87.4252 174.176 86.7527 173.924C84.3149 173.336 85.0714 176.11 85.6599 177.371C86.293 178.406 87.1292 179.303 88.1181 180.008C89.1071 180.712 90.2284 181.208 91.4144 181.467C92.6004 181.727 93.8266 181.743 95.0192 181.516C96.2117 181.288 97.3459 180.822 98.3533 180.145Z" fill="#361041"/>
<path d="M67.2491 161.064C62.2894 157.029 53.7991 163.418 58.8429 168.714C63.8866 174.01 73.6378 166.276 67.2491 161.064Z" fill="#FF47D3"/>
<path d="M108.272 160.56C110.458 170.9 126.514 162.746 119.453 156.021C115.586 152.322 106.927 154.171 108.272 160.56Z" fill="#FF47D3"/>
<path d="M72.4632 134.5C69.521 131.978 63.0482 135.088 60.5263 136.685C59.4335 137.358 54.8941 140.216 54.726 141.645C54.5579 143.074 54.726 144.587 56.1551 143.074C58.6497 140.383 61.9562 138.582 65.57 137.946C67.2513 137.526 77.2547 138.535 72.4632 134.5Z" fill="#361041"/>
<path d="M103.817 135.257C108.477 133.593 113.601 133.804 118.108 135.845C122.059 137.19 120.798 135.089 117.688 133.239C114.933 131.28 111.652 130.196 108.273 130.129C106.675 130.129 102.304 130.129 101.464 132.23C100.623 134.332 101.968 135.845 103.817 135.257Z" fill="#361041"/>
<path d="M253.027 72.4616C243.192 63.551 236.887 84.0622 235.374 90.7872C232.348 101.799 228.397 113.064 226.127 124.412C224.274 118.897 221.425 113.768 217.721 109.281C221.252 109.281 224.614 103.06 226.127 100.454C227.474 98.3107 228.343 95.9026 228.676 93.3934C229.01 90.8842 228.8 88.3326 228.061 85.9116C224.951 73.8907 211.248 65.9047 200.993 75.0676C203.094 72.966 200.993 66.6613 199.732 64.2235C198.907 62.3241 197.635 60.6521 196.025 59.3496C194.415 58.047 192.515 57.1524 190.485 56.7419C186.981 56.2899 183.436 57.1838 180.565 59.2432C177.695 61.3025 175.712 64.3742 175.017 67.8382C172.916 61.4494 162.997 60.4407 157.785 62.7944C155.857 63.5804 154.137 64.8004 152.758 66.3594C151.379 67.9184 150.378 69.7744 149.834 71.7832C149.289 73.792 149.214 75.8995 149.617 77.9416C150.019 79.9838 150.887 81.9057 152.152 83.5579C150.62 82.9694 148.961 82.7917 147.339 83.0424C145.717 83.2931 144.189 83.9634 142.906 84.9869C142.875 82.6564 142.267 80.3697 141.138 78.3309C140.009 76.2921 138.392 74.5645 136.433 73.3022C135.326 72.7158 134.102 72.3841 132.85 72.3315C131.599 72.2789 130.351 72.5067 129.199 72.9982C128.047 73.4897 127.019 74.2325 126.191 75.1723C125.362 76.1121 124.755 77.2252 124.412 78.4301C119.872 88.9379 122.142 102.64 123.403 113.568C120.233 108.328 115.769 103.992 110.44 100.974C105.112 97.9561 99.0965 96.3588 92.9725 96.3354C88.5266 96.3692 84.1092 97.0488 79.8587 98.3529C77.042 99.2288 74.3769 100.533 71.9569 102.22C70.1916 103.565 68.3422 106.591 66.4928 107.263C65.1769 107.34 63.8577 107.34 62.5419 107.263C60.3311 107.579 58.1953 108.291 56.2372 109.365C52.7081 111.02 49.7733 113.72 47.8309 117.099C46.57 106.507 45.7294 93.6454 43.2916 82.381C43.1164 79.8794 42.3837 77.4486 41.1474 75.2668C39.911 73.085 38.2023 71.2075 36.1462 69.7716C35.2533 69.306 34.2702 69.0392 33.2644 68.9895C32.2585 68.9399 31.2539 69.1085 30.3194 69.4839C29.385 69.8593 28.5429 70.4325 27.8509 71.1642C27.159 71.8958 26.6336 72.7686 26.3109 73.7226C21.0991 83.726 22.0237 98.9413 21.9397 109.701C21.7848 121.997 22.3461 134.291 23.6209 146.521C26.395 170.983 29.0009 195.193 34.0447 219.319C36.1462 229.238 37.2391 243.108 46.1497 249.665C56.4618 255.279 68.0342 258.172 79.7747 258.072C93.6124 259.463 107.58 258.783 121.217 256.054C124.085 255.714 126.854 254.793 129.354 253.348C131.854 251.902 134.034 249.963 135.76 247.648C137.853 242.441 138.882 236.867 138.787 231.256C138.787 229.743 139.207 228.145 139.375 226.632C140.804 233.273 138.618 242.268 141.981 248.152C146.352 255.802 159.466 255.802 167.2 256.558C177.931 257.26 188.703 257.035 199.396 255.886C204.479 255.42 209.513 254.52 214.443 253.196C219.331 252.411 223.999 250.607 228.145 247.9C230.635 244.825 231.867 240.92 231.592 236.972C232.012 231.676 232.516 226.296 232.852 220.916C233.662 211.047 234.981 201.227 236.803 191.494C239.998 172.916 243.444 155.431 246.723 136.769C248.74 125.673 251.767 114.745 254.288 103.733C256.222 95.6629 259.921 78.7663 253.027 72.4616ZM228.902 140.468C228.902 143.242 226.968 144.503 224.614 144.839C224.783 143.275 224.783 141.697 224.614 140.132C224.614 138.787 224.614 137.526 223.942 136.181C226.212 137.106 228.565 137.61 228.902 140.468ZM153.75 102.136C161.736 92.0482 177.792 90.6191 189.644 92.1322C197.294 93.0569 213.602 97.6804 215.704 107.263C211.534 102.403 206.203 98.6755 200.207 96.4269C194.211 94.1783 187.744 93.4818 181.406 94.4019C176.717 94.7795 172.056 95.4534 167.452 96.4194C165.418 96.8197 163.442 97.469 161.567 98.3529C158.709 99.6138 155.431 103.228 153.161 103.649L153.75 102.136ZM152.825 127.354C157.028 117.603 168.797 112.475 171.067 102.136C176.699 113.652 193.679 115.838 204.692 120.209C215.704 124.58 222.092 130.213 222.261 141.897C221.941 146.958 220.582 151.9 218.268 156.412C215.954 160.925 212.734 164.912 208.811 168.125C203.541 172.802 196.981 175.777 189.991 176.662C183.001 177.547 175.907 176.3 169.637 173.084C161.554 169.02 155.32 162.033 152.197 153.541C149.075 145.049 149.3 135.687 152.825 127.354ZM165.602 175.27C162.974 177.628 159.88 179.407 156.521 180.493C153.161 181.579 149.611 181.948 146.1 181.575C146.1 173.841 146.1 165.771 146.941 158.037C150.57 163.85 155.382 168.833 161.063 172.664C162.576 173.589 164.089 174.513 165.602 175.27ZM148.79 104.91C149.724 105.37 150.712 105.709 151.732 105.918C149.126 106.759 147.193 111.551 146.016 114.325C146.016 110.542 145.512 106.759 145.007 103.06C146.132 103.772 147.313 104.39 148.538 104.91H148.79ZM147.445 145.596C147.445 146.437 147.445 147.193 147.445 148.034C147.692 149.4 148.029 150.748 148.454 152.069C141.14 154.002 139.963 146.437 147.193 145.596H147.445ZM140.72 133.407V134.5C139.627 132.987 133.491 134.5 131.557 134.5C131.852 133.086 131.852 131.626 131.557 130.213C134.556 130.715 137.6 130.884 140.636 130.717C140.047 130.633 140.384 132.818 140.468 133.407H140.72ZM129.876 89.6944C129.876 87.5929 129.876 80.6997 132.734 79.6069C135.592 78.5141 136.937 88.0132 137.357 90.5351C139.543 102.808 139.291 115.754 140.552 127.775C137.476 127.208 134.34 127.039 131.221 127.27C131.725 120.629 129.876 113.484 129.708 106.843C129.54 100.202 129.203 95.4107 129.624 89.6944H129.876ZM130.464 153.75C131.049 150.789 131.303 147.772 131.221 144.755C135.424 145.848 134.499 153.918 130.212 153.75H130.464ZM51.4456 135.845C56.5734 128.195 66.9131 122.563 69.2669 113.4C68.5944 116.006 74.815 119.284 76.5803 120.125C80.9823 122.091 85.7176 123.204 90.5347 123.403C96.2906 123.8 102.001 124.7 107.599 126.093C114.854 127.402 121.408 131.245 126.093 136.938C127.501 139.101 128.432 141.539 128.823 144.09C129.215 146.641 129.058 149.247 128.363 151.733C127.507 159.144 124.813 166.225 120.526 172.332C116.24 178.439 110.496 183.378 103.817 186.703C96.9381 189.613 89.401 190.61 82.0023 189.589C74.6037 188.568 67.6184 185.567 61.7853 180.902C48.5875 170.142 41.1059 150.556 51.1934 135.845H51.4456ZM44.0481 153.75C44.3535 156.401 45.0035 159.001 45.9816 161.484C45.3821 161.238 44.7636 161.041 44.1322 160.895C43.4102 160.638 42.7811 160.171 42.3249 159.555C41.8686 158.939 41.6058 158.201 41.5697 157.435C41.5337 156.67 41.7261 155.91 42.1225 155.254C42.5189 154.598 43.1013 154.074 43.7959 153.75H44.0481ZM29.5894 128.952C28.9169 118.192 28.5806 107.348 28.9169 96.5876C28.9169 93.4772 28.9169 76.4126 32.1953 75.9922C37.2391 75.656 41.3581 127.438 42.0306 132.146C37.8624 132.223 33.7389 133.02 29.8416 134.5C29.8416 132.903 29.6734 130.885 29.5894 128.952ZM30.3459 141.393C30.3459 137.526 29.8416 138.619 31.9431 137.274C33.4039 136.601 34.9663 136.175 36.5666 136.013L42.0306 134.5C41.8212 136.287 41.8212 138.093 42.0306 139.88C38.014 140.024 34.0441 140.79 30.2619 142.149C30.3421 141.906 30.3707 141.648 30.3459 141.393ZM134.499 214.527C134.479 224.452 132.948 234.316 129.96 243.781C127.69 249.161 121.554 249.749 116.006 250.338C105.236 251.583 94.3969 252.116 83.5575 251.935C73.1651 252.499 62.7888 250.567 53.295 246.303C45.7294 241.848 44.8887 233.021 43.1234 225.119C41.8625 219.151 40.0972 213.266 38.9203 207.298C36.2303 193.007 34.0447 178.548 32.5316 164.09C32.1112 159.887 31.775 155.683 31.3547 151.48C31.3547 150.388 31.3547 149.295 31.3547 148.202C31.3547 145.26 30.6822 145.596 33.12 144.587C35.5578 143.578 39.9291 143.41 43.1234 142.402C43.1234 144.839 44.3003 148.538 43.6278 150.808C42.9553 153.078 38.5 154.759 39.3406 159.214C39.9291 162.24 42.1147 163.081 44.5525 164.174C44.5525 164.174 46.1497 164.174 46.4019 164.174C46.6541 164.174 47.2425 165.519 47.8309 166.696C48.4194 167.873 49.4281 170.478 50.5209 172.244C53.9039 177.983 58.6027 182.836 64.2297 186.402C69.8568 189.968 76.251 192.146 82.885 192.755C89.3011 193.462 95.7936 192.651 101.839 190.388C107.884 188.125 113.313 184.472 117.687 179.725C123.916 173.204 128.222 165.087 130.128 156.272C134.415 159.298 142.233 143.242 131.809 142.318C132.314 142.318 131.809 136.769 131.809 136.601C134.88 136.981 137.986 136.981 141.056 136.601C141.226 139.401 141.226 142.208 141.056 145.008C140.552 146.941 139.375 148.118 139.963 150.219C140.552 152.321 141.308 152.909 141.561 154.591C141.983 160.195 141.842 165.827 141.14 171.403C141.14 174.682 141.14 177.96 140.72 181.238C140.89 182.634 140.89 184.046 140.72 185.442C139.543 187.207 131.473 186.871 128.531 187.207C118.145 188.209 107.923 190.496 98.1003 194.016C94.4016 195.445 76.4962 203.683 83.4734 209.483C87.1722 212.594 94.4856 209.904 98.7728 209.063C105.036 208.079 111.352 207.461 117.687 207.214C120.931 206.92 124.194 206.92 127.438 207.214C128.867 207.214 133.407 207.214 134.415 208.559C135.424 209.904 134.499 212.678 134.499 214.527ZM249.581 88.4335C249.581 92.1322 248.656 95.831 247.984 99.4457C246.891 105.246 245.798 111.13 244.369 116.847C241.091 130.128 237.896 143.494 234.786 156.776C231.676 170.058 228.061 198.808 226.968 199.564C225.875 200.321 224.867 195.277 219.571 192.755C215.724 190.893 211.328 190.504 207.213 191.662C198.807 193.764 191.998 209.652 188.047 209.399C184.096 209.147 182.751 200.068 176.194 199.228C172.87 198.509 169.431 198.509 166.107 199.228C149.294 203.179 149.294 219.319 146.688 219.319C144.082 219.319 144.923 208.979 137.694 207.13C133.01 205.282 128.018 204.341 122.983 204.356C113.153 204.425 103.354 205.467 93.729 207.466C91.4239 208.205 88.9975 208.49 86.5837 208.307C84.0619 207.718 84.3141 207.55 85.575 205.448C89.8831 200.968 95.4046 197.843 101.463 196.454C114.79 192.707 128.492 190.452 142.317 189.729C148.847 189.392 155.298 188.147 161.483 186.03C164.87 184.911 167.93 182.977 170.394 180.398C171.235 179.389 171.991 177.54 172.916 177.288C173.995 177.557 175.039 177.952 176.026 178.464C179.714 179.535 183.535 180.073 187.375 180.062C204.607 180.062 215.872 167.368 222.849 153.078C223.214 151.819 223.722 150.606 224.362 149.463C226.127 146.941 224.362 148.874 226.548 147.529C228.733 146.184 228.817 146.857 229.658 146.016C230.788 144.851 231.497 143.342 231.676 141.729C231.676 138.955 229.91 138.198 229.154 136.097C228.397 133.995 228.565 136.097 229.154 133.827C229.599 132.559 230.133 131.323 230.751 130.128C231.676 127.775 232.432 125.337 233.189 122.899C234.786 117.519 236.299 112.139 237.896 106.759L241.175 94.9904C242.015 92.0482 246.302 76.3285 248.992 78.1779C251.682 80.0272 249.581 86.6682 249.413 88.3494L249.581 88.4335Z" fill="#361041"/>
<path d="M107.937 50.8589C103.575 52.3364 99.8808 55.3158 97.5129 59.2652C97.8089 56.8085 97.5047 54.3166 96.6262 52.0033C95.7477 49.69 94.3212 47.6243 92.4691 45.9833C91.5806 45.3228 90.5593 44.8631 89.4758 44.6358C88.3923 44.4086 87.2724 44.4192 86.1934 44.6669C85.1144 44.9147 84.102 45.3937 83.2262 46.0709C82.3504 46.7481 81.632 47.6073 81.1207 48.5892C80.1282 51.6833 79.8247 54.957 80.2313 58.1808C80.6379 61.4046 81.7448 64.5004 83.4744 67.2511C86.1644 73.2196 89.1907 78.9358 91.8807 84.9042C101.454 80.2124 109.692 73.1878 115.838 64.4771C119.117 57.7521 116.427 49.0096 107.937 50.8589Z" fill="#E91676"/>
<path d="M63.4674 77.8416C63.4674 68.0904 63.9718 58.171 64.3921 48.4198C64.3921 47.3269 65.3168 43.376 64.3921 42.7035C63.4674 42.031 59.6846 43.2919 58.6758 43.4601C53.3531 44.2331 48.0772 45.2996 42.8721 46.6544C47.0752 53.4635 51.2783 60.1885 55.8177 66.9976C58.3396 70.6963 60.9455 74.2269 63.4674 77.8416Z" fill="#FF47D3"/>
<path d="M140.467 32.5312C138.836 35.4931 137.7 38.7018 137.104 42.0302C135.928 46.1493 135.087 50.4365 134.246 54.6396C133.211 57.9949 132.618 61.4707 132.481 64.9793C139.265 58.5362 145.56 51.5958 151.311 44.2158L159.717 33.624L147.36 31.6905C145.763 31.6905 141.98 30.934 140.467 32.5312Z" fill="#FF47D3"/>
<path d="M117.687 43.6276C125.168 40.8535 118.948 31.4385 112.811 32.7835C104.573 34.5488 108.524 47.3263 117.687 43.6276Z" fill="#FF47D3"/>
<path d="M77.4209 32.3642C72.8815 35.5586 78.0093 40.7705 82.3806 38.0805C86.7518 35.3905 81.4559 29.422 77.4209 32.3642Z" fill="#FF47D3"/>
<path d="M64.14 86.7525C58.0035 79.7753 46.8231 89.2744 52.9597 96.3356C59.0963 103.397 69.7722 93.2253 64.14 86.7525Z" fill="#FF47D3"/>
<path d="M35.894 50.4383C30.2618 42.8727 20.0062 53.2124 23.5368 60.5258C28.0762 69.6887 41.1058 58.004 35.894 50.4383Z" fill="#E91676"/>
<path d="M111.214 94.569C112.488 94.9463 113.857 94.8462 115.062 94.2874C116.268 93.7286 117.229 92.7494 117.765 91.5332C118.301 90.317 118.375 88.9471 117.974 87.68C117.573 86.4129 116.724 85.3356 115.585 84.6496C109.28 81.3712 104.741 91.9631 111.214 94.569Z" fill="#FF47D3"/>
<path d="M215.2 55.8177C216.629 57.4148 220.58 63.4673 222.429 64.2239C224.278 64.9805 228.65 60.0208 229.911 59.0961C231.172 58.1714 233.946 56.0698 235.795 54.4727C239.662 51.1942 245.126 43.7127 239.578 39.2573C237.243 38.0165 234.522 37.7172 231.974 38.4207C229.425 39.1243 227.243 40.7774 225.876 43.0402C225.436 40.4437 224.12 38.0764 222.147 36.3326C220.174 34.5888 217.662 33.5739 215.032 33.457C209.399 33.457 207.13 41.1908 208.727 45.8983C210.281 49.5617 212.472 52.9202 215.2 55.8177Z" fill="#E91676"/>
<path d="M169.891 39.2565C170.731 43.7958 169.891 44.8046 174.766 45.5611L184.013 46.9902L189.982 47.6627C190.99 44.048 192.251 40.5174 193.26 36.9027C193.26 35.7258 195.782 30.4299 195.11 29.5893C192.093 29.2463 189.047 29.2463 186.031 29.5893C182.332 29.5893 178.549 29.5893 174.85 29.5893C173.433 29.336 171.981 29.336 170.563 29.5893C168.714 30.4299 169.134 30.2618 169.218 32.6155C169.304 34.841 169.528 37.059 169.891 39.2565Z" fill="#FF47D3"/>
<path d="M160.897 139.713C161.872 139.713 162.662 138.922 162.662 137.947C162.662 136.972 161.872 136.182 160.897 136.182C159.922 136.182 159.131 136.972 159.131 137.947C159.131 138.922 159.922 139.713 160.897 139.713Z" fill="white"/>
<path d="M206.036 136.012C207.011 136.012 207.802 135.221 207.802 134.247C207.802 133.272 207.011 132.481 206.036 132.481C205.061 132.481 204.271 133.272 204.271 134.247C204.271 135.221 205.061 136.012 206.036 136.012Z" fill="white"/>
</svg>
