<svg width="88" height="94" viewBox="0 0 88 94" fill="none" xmlns="http://www.w3.org/2000/svg">
<path d="M60.8125 92.0547C54.0703 92 43.9531 91.7344 34 90.7969C27.1485 90.1484 20.0703 89.125 14.6953 86.0781C13.1797 85.2188 11.5235 85.0078 10.0547 84.8281C9.4297 84.75 8.84377 84.6797 8.34377 84.5625C4.53127 83.6641 1.86721 80.3672 1.85158 76.5469L1.79689 50.9609C1.78908 47.4219 4.31252 44.4609 7.80471 43.9141C7.86721 43.9062 7.92189 43.8906 7.98439 43.875C8.41408 43.7344 18.6797 40.3906 26.4141 34.3438C30.0547 31.5 33.1719 27.1172 34.7578 22.625C36.336 18.1484 36.3281 13.2656 36.3203 9.34375C36.3203 6.8125 36.3125 3.66406 37 3.20313C38.6719 2.10156 40.5156 1.53906 42.4766 1.53906C48.5078 1.53906 54.6641 7.04688 54.9063 12.6563C55.0781 16.5469 53.7735 21.1406 52.5156 25.5781C51.0313 30.8359 49.7422 35.375 50.9063 38.4609C51.0781 38.9219 51.5156 39.2188 52 39.2188C52.0156 39.2188 57.6953 39.0234 57.6953 39.0234H57.75C64.125 39.0234 69.3125 44.2109 69.3203 50.5781L69.3594 83.5547C69.3594 85.8281 68.4844 87.9609 66.875 89.5625C65.2735 91.1641 63.1406 92.0547 60.8672 92.0547C60.8828 92.0547 60.8125 92.0547 60.8125 92.0547Z" fill="url(#paint0_radial_250_308)"/>
<path d="M42.4766 2.71094C47.836 2.71094 53.5157 7.75781 53.7344 12.7031C53.8985 16.4062 52.625 20.9062 51.3907 25.2578C49.8438 30.7109 48.5157 35.4219 49.8125 38.8672C50.1563 39.7812 51.0313 40.3828 52.0078 40.3828C52.0313 40.3828 52.0625 40.3828 52.0938 40.3828L57.7188 40.1875H57.7657C63.4922 40.1875 68.1563 44.8438 68.1641 50.5781L68.2032 83.5547C68.2032 85.5078 67.4453 87.3516 66.0625 88.7344C64.6797 90.1172 62.8438 90.8828 60.8828 90.8828H60.8203C54.1016 90.8281 44.0157 90.5625 34.1094 89.6328C27.3906 89 20.4531 88 15.2735 85.0625C13.5547 84.0859 11.6953 83.8594 10.2031 83.6719C9.60939 83.6016 9.0547 83.5313 8.6172 83.4219C5.33595 82.6484 3.03908 79.8203 3.03127 76.5469L2.96877 50.9609C2.96095 48.0078 5.07033 45.5312 7.98439 45.0781C8.10158 45.0625 8.22658 45.0312 8.33596 44.9922C8.77346 44.8516 19.2266 41.4375 27.125 35.2656C30.9297 32.2891 34.1953 27.7109 35.8516 23.0156C37.5 18.3516 37.4922 13.3594 37.4844 9.34375C37.4844 7.4375 37.4766 4.85938 37.8047 4.07813C39.2422 3.16406 40.8125 2.71094 42.4766 2.71094ZM42.4766 0.367188C40.4063 0.367188 38.3125 0.929688 36.3516 2.22656C33.8203 3.89844 36.5625 13.9609 33.6485 22.2266C31.8985 27.1875 28.5625 31.1719 25.6875 33.4141C18.0313 39.3984 7.62502 42.7578 7.62502 42.7578C3.58595 43.3906 0.617203 46.875 0.625015 50.9688L0.687516 76.5547C0.703141 80.9609 3.78908 84.6875 8.07814 85.7031C9.81252 86.1094 12.1797 86 14.1172 87.1016C19.2969 90.0391 25.9375 91.2109 33.8906 91.9609C43.7344 92.8906 53.7344 93.1641 60.8047 93.2266C60.8282 93.2266 60.8594 93.2266 60.8828 93.2266C66.2188 93.2266 70.5547 88.8984 70.5469 83.5547L70.5078 50.5781C70.5 43.5391 64.7891 37.8516 57.7657 37.8516C57.7344 37.8516 57.7032 37.8516 57.6719 37.8516L52.0157 38.0469C50.0625 32.8594 56.461 21.1875 56.086 12.6016C55.8125 6.5 49.3047 0.367188 42.4766 0.367188Z" fill="#EDA600"/>
<path d="M45.6562 45.828C47.1249 49.7343 47.1406 55.828 45.6562 59.5937C43.5077 65.0312 38.2499 69.789 32.1796 70.6249C30.6952 70.828 31.578 72.1952 33.0546 71.9921C39.6249 71.0858 48.5156 68.4218 50.8281 62.5233C57.1718 46.3124 49.7499 37.8202 46.4374 40.3515C44.8437 41.5858 44.8281 43.6171 45.6562 45.828Z" fill="#EDA600"/>
<path d="M61.4056 51.625C54.8744 51.625 47.0228 50.4141 46.6869 44.625C46.5931 42.9688 47.0931 41.5781 48.2181 40.3828C51.1791 37.2422 58.4525 35.5156 68.7025 35.5156C72.4212 35.5156 75.1322 35.7578 75.1634 35.7578C75.1947 35.7578 75.2337 35.7656 75.265 35.7656C75.2884 35.7656 75.3119 35.7656 75.3353 35.7656C75.4447 35.7578 75.5462 35.7578 75.6556 35.7578C78.9759 35.7578 81.7494 38.75 81.9759 42.5703C82.2103 46.5234 79.6087 49.8984 76.179 50.0938C76.1244 50.0938 76.0619 50.1016 76.0072 50.1172C75.9369 50.125 68.7025 51.625 61.4056 51.625Z" fill="url(#paint1_radial_250_308)"/>
<path d="M68.7108 36.6875C72.367 36.6875 75.0389 36.9219 75.0624 36.9219C75.1327 36.9297 75.203 36.9297 75.2733 36.9297C75.3202 36.9297 75.367 36.9297 75.4061 36.9219C75.492 36.9141 75.578 36.9141 75.6561 36.9141C78.3514 36.9141 80.6171 39.4219 80.8046 42.6172C80.8983 44.2734 80.4295 45.8438 79.4842 47.0469C78.6014 48.1719 77.3983 48.8281 76.1092 48.9063C75.992 48.9141 75.8749 48.9297 75.7655 48.9531C75.6952 48.9688 68.5624 50.4453 61.4061 50.4453C57.2498 50.4453 53.953 49.9609 51.617 49.0078C48.4061 47.6953 47.9295 45.8359 47.8592 44.5547C47.7811 43.2188 48.1717 42.1484 49.078 41.1797C51.7733 38.3281 58.9295 36.6875 68.7108 36.6875ZM68.7108 34.3438C59.7889 34.3438 44.992 35.6953 45.5155 44.6953C45.8983 51.1953 53.742 52.7969 61.4061 52.7969C68.9139 52.7969 76.2499 51.2578 76.2499 51.2578C80.328 51.0156 83.4217 47.0938 83.1483 42.4922C82.8905 38.0391 79.578 34.5781 75.6639 34.5781C75.5311 34.5781 75.4061 34.5781 75.2733 34.5859C75.2733 34.5859 72.5311 34.3438 68.7108 34.3438Z" fill="#EDA600"/>
<path d="M66.3047 66.4922C57.7813 66.4922 47.625 65.0625 47.625 58.2344C47.625 51.4063 57.7813 49.9766 66.3047 49.9766C73.5313 49.9766 80.1172 51.0313 80.1797 51.0391C80.2422 51.0469 80.3047 51.0547 80.3672 51.0547C83.8125 51.0547 86.2109 54.6953 86.2109 57.9609C86.2109 61.4063 83.6563 65.4063 80.3672 65.4063C80.3047 65.4063 80.2422 65.4141 80.1797 65.4219C80.1094 65.4375 73.5234 66.4922 66.3047 66.4922Z" fill="url(#paint2_radial_250_308)"/>
<path d="M66.3047 51.1562C73.4297 51.1562 79.9297 52.1953 79.9922 52.2031C80.1172 52.2266 80.2422 52.2344 80.3672 52.2344C83.0391 52.2344 85.0391 55.2656 85.0391 57.9687C85.0391 60.7891 82.8828 64.2422 80.3672 64.2422C80.2422 64.2422 80.1172 64.25 79.9922 64.2734C79.9297 64.2812 73.4219 65.3203 66.3047 65.3203C60.9688 65.3203 56.7266 64.7578 53.6875 63.6406C49.3047 62.0312 48.7969 59.7812 48.7969 58.2344C48.7969 56.6797 49.3047 54.4375 53.6875 52.8281C56.7188 51.7187 60.9688 51.1562 66.3047 51.1562ZM66.3047 48.8125C56.9844 48.8125 46.4531 50.5234 46.4531 58.2422C46.4531 65.9609 56.9766 67.6719 66.3047 67.6719C73.7188 67.6719 80.3672 66.5937 80.3672 66.5937C84.3984 66.5937 87.3828 61.9766 87.3828 57.9766C87.3828 53.9766 84.3984 49.8984 80.3672 49.8984C80.3672 49.8906 73.7109 48.8125 66.3047 48.8125Z" fill="#EDA600"/>
<path d="M72.7968 92.4609C69.5078 92.4609 52.8437 92.2031 47.7969 87.1484C46.9141 86.2656 46.4922 85.3125 46.4922 84.2344C46.5078 80.1328 53.5312 77.7812 65.7578 77.7812C70.1172 77.7812 73.4922 78.0938 73.5312 78.0938C73.5625 78.0938 73.6015 78.1016 73.6328 78.1016C75.4609 78.1094 77.1875 78.8516 78.4765 80.2031C79.7812 81.5625 80.4921 83.375 80.4921 85.2969C80.4765 89.2422 77.3906 92.4453 73.6093 92.4453C73.5547 92.4609 73.2812 92.4609 72.7968 92.4609Z" fill="url(#paint3_radial_250_308)"/>
<path d="M65.7656 78.9609C70.0547 78.9609 73.3906 79.2656 73.4219 79.2734C73.4922 79.2812 73.5625 79.2812 73.6328 79.2812C75.1406 79.2891 76.5625 79.9062 77.6328 81.0234C78.7266 82.1641 79.3281 83.6875 79.3203 85.3047C79.3125 88.6016 76.75 91.2891 73.586 91.2891H73.5781C73.5625 91.2891 73.5469 91.2891 73.5313 91.2891C73.5156 91.2891 73.25 91.2969 72.7891 91.2969C58.6094 91.2969 50.9063 88.6172 48.6172 86.3281C47.75 85.4609 47.6563 84.7266 47.6563 84.25C47.6797 80.9844 54.6094 78.9609 65.7656 78.9609ZM65.7656 76.6172C57.3906 76.6172 45.3438 77.7422 45.3282 84.2344C45.2969 93.1875 68.2188 93.6328 72.7969 93.6328C73.3047 93.6328 73.586 93.625 73.586 93.625C73.5938 93.625 73.6016 93.625 73.6094 93.625C78.0469 93.625 81.6484 89.9062 81.6641 85.3047C81.6797 80.6953 78.0859 76.9453 73.6406 76.9297C73.6406 76.9375 70.2266 76.6172 65.7656 76.6172Z" fill="#EDA600"/>
<path d="M69.875 80.0625C62.8516 80.0625 46.5234 79.2656 46.5234 71.8828C46.5234 65.6797 58.2969 64.7578 65.3203 64.7578C71.5313 64.7578 76.8828 65.4453 76.9375 65.4531C76.9844 65.4609 77.0391 65.4609 77.0859 65.4609C80.3438 65.4609 84.1406 67.0703 84.1406 71.6094C84.1406 75.9063 80.7813 79.8125 77.0859 79.8125C77.0547 79.8125 77.0234 79.8125 76.9922 79.8125C76.9609 79.8203 73.9531 80.0625 69.875 80.0625Z" fill="url(#paint4_radial_250_308)"/>
<path d="M65.3203 63.5938V65.9375C71.4375 65.9375 76.7344 66.6172 76.7813 66.625C76.8828 66.6406 76.9844 66.6406 77.0859 66.6406C79.9297 66.6406 82.9688 67.9453 82.9688 71.6172C82.9688 75.2344 80.1094 78.6484 77.0859 78.6484C77.0234 78.6484 76.9609 78.6484 76.8906 78.6563C76.8594 78.6563 73.8984 78.8984 69.8672 78.8984C65.6094 78.8984 59.5234 78.625 54.7031 77.3438C50.0547 76.1016 47.6953 74.2656 47.6953 71.8984C47.6953 71.1719 47.6953 68.9609 52.6484 67.4063C55.7344 66.4375 59.9922 65.9453 65.3125 65.9453L65.3203 63.5938ZM65.3203 63.5938C56.2891 63.5938 45.3516 65.0156 45.3516 71.8906C45.3516 79.9922 60.5078 81.2422 69.875 81.2422C74.0625 81.2422 77.0859 80.9922 77.0859 80.9922C81.4922 80.9922 85.3125 76.4375 85.3125 71.6172C85.3125 66.7969 81.4922 64.2969 77.0859 64.2969C77.0859 64.2969 71.6719 63.5938 65.3203 63.5938Z" fill="#EDA600"/>
<path d="M15.7109 86.7656L11.9687 72L10.4062 85.2813L15.7109 86.7656Z" fill="#EDA600"/>
<defs>
<radialGradient id="paint0_radial_250_308" cx="0" cy="0" r="1" gradientUnits="userSpaceOnUse" gradientTransform="translate(34.4443 21.5319) rotate(90.125) scale(67.9996 53.5361)">
<stop offset="0.6" stop-color="#FFCA28"/>
<stop offset="1" stop-color="#FFB300"/>
</radialGradient>
<radialGradient id="paint1_radial_250_308" cx="0" cy="0" r="1" gradientUnits="userSpaceOnUse" gradientTransform="translate(74.4235 42.8834) rotate(176.727) scale(22.0874 10.8077)">
<stop offset="0.5993" stop-color="#FFCA28"/>
<stop offset="1" stop-color="#FFB300"/>
</radialGradient>
<radialGradient id="paint2_radial_250_308" cx="0" cy="0" r="1" gradientUnits="userSpaceOnUse" gradientTransform="translate(77.9285 58.0323) rotate(-179.936) scale(24.8585 9.96865)">
<stop offset="0.5993" stop-color="#FFCA28"/>
<stop offset="1" stop-color="#FFB300"/>
</radialGradient>
<radialGradient id="paint3_radial_250_308" cx="0" cy="0" r="1" gradientUnits="userSpaceOnUse" gradientTransform="translate(73.1165 84.9646) rotate(-179.726) scale(20.8764 10.8688)">
<stop offset="0.5993" stop-color="#FFCA28"/>
<stop offset="1" stop-color="#FFB300"/>
</radialGradient>
<radialGradient id="paint4_radial_250_308" cx="0" cy="0" r="1" gradientUnits="userSpaceOnUse" gradientTransform="translate(76.0359 72.2227) rotate(-179.934) scale(23.7848 9.89317)">
<stop offset="0.5993" stop-color="#FFCA28"/>
<stop offset="1" stop-color="#FFB300"/>
</radialGradient>
</defs>
</svg>
